<svg width="19" height="17" viewBox="0 0 19 17" fill="none" xmlns="http://www.w3.org/2000/svg">
<path d="M4.75 0.542114C3.44375 0.542114 2.28 1.08836 1.40125 1.94336C0.54625 2.79836 0 3.96211 0 5.29211C0 6.59836 0.54625 7.76211 1.40125 8.64086L9.5 16.7396L17.5987 8.64086C18.4538 7.78586 19 6.62211 19 5.29211C19 3.98586 18.4538 2.82211 17.5987 1.94336C16.7437 1.08836 15.58 0.542114 14.25 0.542114C12.9438 0.542114 11.78 1.08836 10.9013 1.94336C10.0463 2.79836 9.5 3.96211 9.5 5.29211C9.5 3.98586 8.95375 2.82211 8.09875 1.94336C7.24375 1.08836 6.08 0.542114 4.75 0.542114Z" fill="#FDFDFD"/>
</svg>
