<svg width="25" height="21" viewBox="0 0 25 21" fill="none" xmlns="http://www.w3.org/2000/svg">
<path d="M18.3585 0C20.0413 0 21.5406 0.703741 22.6727 1.80525C23.7742 2.90676 24.478 4.40603 24.478 6.11949C24.478 7.80234 23.7742 9.30162 22.6727 10.4337L12.239 20.8674L1.80527 10.4337C0.703766 9.33222 2.47955e-05 7.83294 2.47955e-05 6.11949C2.47955e-05 4.43663 0.703766 2.93735 1.80527 1.80525C2.90678 0.703741 4.40605 0 6.11951 0C7.80237 0 9.30164 0.703741 10.4337 1.80525C11.5353 2.90676 12.239 4.40603 12.239 6.11949C12.239 4.43663 12.9427 2.93735 14.0442 1.80525C15.1458 0.703741 16.645 0 18.3585 0Z" fill="#FF5722"/>
</svg>
