<svg width="17" height="20" viewBox="0 0 17 20" fill="none" xmlns="http://www.w3.org/2000/svg">
<path d="M7.28571 0C5.95 0 4.85714 1.09286 4.85714 2.42857H2.42857C1.09286 2.42857 0 3.52143 0 4.85714H17C17 3.52143 15.9071 2.42857 14.5714 2.42857H12.1429C12.1429 1.09286 11.05 0 9.71429 0H7.28571ZM2.42857 7.28571V18.9671C2.42857 19.2343 2.62286 19.4286 2.89 19.4286H14.1343C14.4014 19.4286 14.5957 19.2343 14.5957 18.9671V7.28571H12.1671V15.7857C12.1671 16.4657 11.6329 17 10.9529 17C10.2729 17 9.73857 16.4657 9.73857 15.7857V7.28571H7.31V15.7857C7.31 16.4657 6.77571 17 6.09571 17C5.41571 17 4.88143 16.4657 4.88143 15.7857V7.28571H2.45286H2.42857Z" fill="black"/>
</svg>
